<svg width="20" height="20" viewBox="0 0 20 20" fill="none" xmlns="http://www.w3.org/2000/svg">
<path d="M3.12276 18.8889L16.0887 5.92298V17.2522C16.0887 18.1576 16.8316 18.9005 17.737 18.9005C17.952 18.9007 18.1649 18.8585 18.3636 18.7764C18.5623 18.6942 18.7428 18.5736 18.8948 18.4216C19.0468 18.2696 19.1674 18.0891 19.2495 17.8904C19.3317 17.6917 19.3739 17.4788 19.3737 17.2638L19.3737 1.96472C19.3739 1.74972 19.3317 1.53679 19.2495 1.33812C19.1674 1.13945 19.0468 0.958929 18.8948 0.806904C18.7428 0.654878 18.5623 0.534329 18.3636 0.452154C18.1649 0.369981 17.952 0.327796 17.737 0.328016L2.4379 0.328017C2.22296 0.328017 2.01013 0.370352 1.81156 0.452605C1.61299 0.534856 1.43256 0.655415 1.28058 0.807396C1.1286 0.959378 1.00804 1.13981 0.925787 1.33838C0.843534 1.53695 0.801199 1.74978 0.801199 1.96472C0.801199 2.17965 0.843534 2.39248 0.925787 2.59105C1.00804 2.78963 1.1286 2.97006 1.28058 3.12204C1.43256 3.27402 1.61299 3.39458 1.81156 3.47683C2.01013 3.55908 2.22297 3.60142 2.4379 3.60142L13.7671 3.60142L0.801201 16.5673C0.162771 17.2058 0.16277 18.2505 0.801199 18.8889C1.43963 19.5273 2.48433 19.5273 3.12276 18.8889Z" fill="#F1F4FE" fill-opacity="0.8"/>
</svg>
