<svg width="40" height="36" viewBox="0 0 40 36" fill="none" xmlns="http://www.w3.org/2000/svg">
<path fill-rule="evenodd" clip-rule="evenodd" d="M12.5581 0.114258C9.22751 0.114258 6.0333 1.41945 3.67819 3.74272C1.32309 6.06599 0 9.21701 0 12.5026V23.5145C0 26.8001 1.32309 29.9511 3.67819 32.2743C6.0333 34.5976 9.22751 35.9028 12.5581 35.9028H27.4419C30.7725 35.9028 33.9667 34.5976 36.3218 32.2743C38.6769 29.9511 40 26.8001 40 23.5145V12.5026C40 9.21701 38.6769 6.06599 36.3218 3.74272C33.9667 1.41945 30.7725 0.114258 27.4419 0.114258H12.5581ZM21.0567 23.9733C21.2962 23.7007 21.4177 23.3464 21.395 22.9864C21.3723 22.6264 21.2073 22.2896 20.9355 22.0484C20.6637 21.8072 20.3068 21.6809 19.9415 21.6966C19.5762 21.7123 19.2318 21.8688 18.9823 22.1325L18.9637 22.1527C18.7251 22.4251 18.6042 22.779 18.6269 23.1384C18.6497 23.4977 18.8143 23.834 19.0854 24.0751C19.3566 24.3161 19.7126 24.4428 20.0773 24.4279C20.442 24.413 20.7863 24.2577 21.0363 23.9953L21.0549 23.9751L21.0567 23.9733ZM28.2307 17.513C24.1377 12.6678 15.8623 12.6678 11.7693 17.513C11.6537 17.6568 11.51 17.7763 11.3469 17.8645C11.1837 17.9527 11.0043 18.0079 10.8192 18.0267C10.6342 18.0455 10.4471 18.0276 10.2692 17.974C10.0912 17.9205 9.92589 17.8324 9.78296 17.7149C9.64002 17.5974 9.52235 17.4529 9.43687 17.2898C9.35139 17.1268 9.29982 16.9486 9.2852 16.7656C9.27058 16.5826 9.29321 16.3986 9.35174 16.2244C9.41027 16.0502 9.50354 15.8892 9.62605 15.7511C14.8353 9.58446 25.1647 9.58446 30.374 15.7511C30.4965 15.8892 30.5897 16.0502 30.6483 16.2244C30.7068 16.3986 30.7294 16.5826 30.7148 16.7656C30.7002 16.9486 30.6486 17.1268 30.5631 17.2898C30.4777 17.4529 30.36 17.5974 30.217 17.7149C30.0741 17.8324 29.9088 17.9205 29.7308 17.974C29.5529 18.0276 29.3658 18.0455 29.1808 18.0267C28.9957 18.0079 28.8163 17.9527 28.6531 17.8645C28.49 17.7763 28.3463 17.6568 28.2307 17.513ZM15.5349 21.1286C16.0548 20.4447 16.7289 19.8897 17.5039 19.5075C18.2789 19.1252 19.1335 18.9262 20 18.9262C20.8665 18.9262 21.7211 19.1252 22.4961 19.5075C23.2711 19.8897 23.9452 20.4447 24.4651 21.1286C24.6872 21.4206 25.0177 21.6137 25.3841 21.6653C25.7504 21.717 26.1225 21.6229 26.4186 21.4039C26.7147 21.1848 26.9104 20.8587 26.9627 20.4973C27.0151 20.1359 26.9197 19.7688 26.6977 19.4768C23.3488 15.072 16.6512 15.072 13.3023 19.4768C13.0803 19.7688 12.9849 20.1359 13.0373 20.4973C13.0896 20.8587 13.2853 21.1848 13.5814 21.4039C13.728 21.5123 13.8948 21.5912 14.0723 21.6361C14.2498 21.681 14.4345 21.6909 14.6159 21.6653C14.9823 21.6137 15.3128 21.4206 15.5349 21.1286Z" fill="#F1F4FE"/>
<rect x="4.21094" y="2.54663" width="31.5789" height="31.2716" rx="15.6358" fill="#1D1626"/>
<rect x="4.21094" y="3.58911" width="7.7193" height="28.8393" fill="#F1F4FE"/>
<rect x="28.0703" y="3.58911" width="7.7193" height="28.8393" fill="#F1F4FE"/>
<rect x="5.96582" y="33.8183" width="5.55939" height="28.0702" transform="rotate(-90 5.96582 33.8183)" fill="#F1F4FE"/>
<rect x="7.01758" y="8.10614" width="5.55939" height="28.0702" transform="rotate(-90 7.01758 8.10614)" fill="#F1F4FE"/>
<rect x="6.66699" y="12.623" width="5.55939" height="28.0702" transform="rotate(-90 6.66699 12.623)" fill="#F1F4FE"/>
<rect x="6.31641" y="18.1824" width="5.55939" height="28.0702" transform="rotate(-90 6.31641 18.1824)" fill="#F1F4FE"/>
<rect x="7.36914" y="23.7418" width="5.55939" height="28.0702" transform="rotate(-90 7.36914 23.7418)" fill="#F1F4FE"/>
<rect x="7.71973" y="28.6063" width="5.55939" height="28.0702" transform="rotate(-90 7.71973 28.6063)" fill="#F1F4FE"/>
<g filter="url(#filter0_d_146_2028)">
<path d="M13.1185 12.4542C13.2665 11.9046 13.5936 11.4188 14.0491 11.0723C14.5046 10.7258 15.0629 10.538 15.6372 10.5381H24.3612C24.9357 10.5378 25.4942 10.7256 25.9499 11.0721C26.4056 11.4186 26.7328 11.9044 26.8809 12.4542L28.7167 19.2735C27.9082 18.63 26.9016 18.28 25.8643 18.2815H14.135C13.0974 18.2798 12.0905 18.6299 11.2817 19.2735L13.1185 12.4542Z" fill="#1D1626"/>
<path fill-rule="evenodd" clip-rule="evenodd" d="M14.1351 19.5721C13.7072 19.5721 13.2836 19.6555 12.8883 19.8177C12.493 19.9798 12.1338 20.2175 11.8312 20.5171C11.5287 20.8167 11.2887 21.1724 11.125 21.5638C10.9612 21.9553 10.877 22.3748 10.877 22.7985C10.877 23.2222 10.9612 23.6418 11.125 24.0332C11.2887 24.4247 11.5287 24.7803 11.8312 25.0799C12.1338 25.3795 12.493 25.6172 12.8883 25.7793C13.2836 25.9415 13.7072 26.0249 14.1351 26.0249H25.8644C26.2923 26.0249 26.716 25.9415 27.1113 25.7793C27.5066 25.6172 27.8657 25.3795 28.1683 25.0799C28.4708 24.7803 28.7108 24.4247 28.8746 24.0332C29.0383 23.6418 29.1226 23.2222 29.1226 22.7985C29.1226 22.3748 29.0383 21.9553 28.8746 21.5638C28.7108 21.1724 28.4708 20.8167 28.1683 20.5171C27.8657 20.2175 27.5066 19.9798 27.1113 19.8177C26.716 19.6555 26.2923 19.5721 25.8644 19.5721H14.1351ZM23.2579 23.4438C23.4307 23.4438 23.5965 23.3758 23.7187 23.2548C23.8409 23.1338 23.9095 22.9697 23.9095 22.7985C23.9095 22.6274 23.8409 22.4632 23.7187 22.3422C23.5965 22.2212 23.4307 22.1532 23.2579 22.1532C23.0851 22.1532 22.9193 22.2212 22.7971 22.3422C22.6749 22.4632 22.6063 22.6274 22.6063 22.7985C22.6063 22.9697 22.6749 23.1338 22.7971 23.2548C22.9193 23.3758 23.0851 23.4438 23.2579 23.4438ZM26.5161 22.7985C26.5161 22.9697 26.4474 23.1338 26.3252 23.2548C26.203 23.3758 26.0372 23.4438 25.8644 23.4438C25.6916 23.4438 25.5259 23.3758 25.4036 23.2548C25.2814 23.1338 25.2128 22.9697 25.2128 22.7985C25.2128 22.6274 25.2814 22.4632 25.4036 22.3422C25.5259 22.2212 25.6916 22.1532 25.8644 22.1532C26.0372 22.1532 26.203 22.2212 26.3252 22.3422C26.4474 22.4632 26.5161 22.6274 26.5161 22.7985Z" fill="#1D1626"/>
</g>
<defs>
<filter id="filter0_d_146_2028" x="-4" y="0.114258" width="48" height="43.7886" filterUnits="userSpaceOnUse" color-interpolation-filters="sRGB">
<feFlood flood-opacity="0" result="BackgroundImageFix"/>
<feColorMatrix in="SourceAlpha" type="matrix" values="0 0 0 0 0 0 0 0 0 0 0 0 0 0 0 0 0 0 127 0" result="hardAlpha"/>
<feOffset dy="4"/>
<feGaussianBlur stdDeviation="2"/>
<feComposite in2="hardAlpha" operator="out"/>
<feColorMatrix type="matrix" values="0 0 0 0 0 0 0 0 0 0 0 0 0 0 0 0 0 0 0.25 0"/>
<feBlend mode="normal" in2="BackgroundImageFix" result="effect1_dropShadow_146_2028"/>
<feBlend mode="normal" in="SourceGraphic" in2="effect1_dropShadow_146_2028" result="shape"/>
</filter>
</defs>
</svg>
