<svg width="42" height="49" viewBox="0 0 42 49" fill="none" xmlns="http://www.w3.org/2000/svg">
<path fill-rule="evenodd" clip-rule="evenodd" d="M13.5581 0.97229C10.2275 0.97229 7.0333 2.27747 4.67819 4.60072C2.32309 6.92396 1 10.075 1 13.3605V24.3723C1 27.6578 2.32309 30.8088 4.67819 33.1321C7.0333 35.4553 10.2275 36.7605 13.5581 36.7605H28.4419C31.7725 36.7605 34.9667 35.4553 37.3218 33.1321C39.6769 30.8088 41 27.6578 41 24.3723V13.3605C41 10.075 39.6769 6.92396 37.3218 4.60072C34.9667 2.27747 31.7725 0.97229 28.4419 0.97229H13.5581ZM22.0567 24.8311C22.2962 24.5586 22.4177 24.2042 22.395 23.8442C22.3723 23.4843 22.2073 23.1474 21.9355 22.9062C21.6637 22.665 21.3068 22.5387 20.9415 22.5544C20.5762 22.5701 20.2318 22.7267 19.9823 22.9903L19.9637 23.0105C19.7251 23.283 19.6042 23.6368 19.6269 23.9962C19.6497 24.3555 19.8143 24.6918 20.0854 24.9329C20.3566 25.1739 20.7126 25.3006 21.0773 25.2857C21.442 25.2708 21.7863 25.1155 22.0363 24.8531L22.0549 24.8329L22.0567 24.8311ZM29.2307 18.3709C25.1377 13.5257 16.8623 13.5257 12.7693 18.3709C12.6537 18.5146 12.51 18.6342 12.3469 18.7224C12.1837 18.8106 12.0043 18.8657 11.8192 18.8845C11.6342 18.9033 11.4471 18.8854 11.2692 18.8319C11.0912 18.7784 10.9259 18.6902 10.783 18.5727C10.64 18.4552 10.5224 18.3107 10.4369 18.1477C10.3514 17.9847 10.2998 17.8064 10.2852 17.6235C10.2706 17.4405 10.2932 17.2565 10.3517 17.0823C10.4103 16.908 10.5035 16.7471 10.626 16.609C15.8353 10.4424 26.1647 10.4424 31.374 16.609C31.4965 16.7471 31.5897 16.908 31.6483 17.0823C31.7068 17.2565 31.7294 17.4405 31.7148 17.6235C31.7002 17.8064 31.6486 17.9847 31.5631 18.1477C31.4777 18.3107 31.36 18.4552 31.217 18.5727C31.0741 18.6902 30.9088 18.7784 30.7308 18.8319C30.5529 18.8854 30.3658 18.9033 30.1808 18.8845C29.9957 18.8657 29.8163 18.8106 29.6531 18.7224C29.49 18.6342 29.3463 18.5146 29.2307 18.3709ZM16.5349 21.9864C17.0548 21.3026 17.7289 20.7476 18.5039 20.3653C19.2789 19.9831 20.1335 19.784 21 19.784C21.8665 19.784 22.7211 19.9831 23.4961 20.3653C24.2711 20.7476 24.9452 21.3026 25.4651 21.9864C25.6872 22.2784 26.0177 22.4715 26.3841 22.5232C26.7504 22.5748 27.1225 22.4807 27.4186 22.2617C27.7147 22.0427 27.9104 21.7166 27.9627 21.3552C28.0151 20.9938 27.9197 20.6267 27.6977 20.3346C24.3488 15.9299 17.6512 15.9299 14.3023 20.3346C14.0803 20.6267 13.9849 20.9938 14.0373 21.3552C14.0896 21.7166 14.2853 22.0427 14.5814 22.2617C14.728 22.3701 14.8948 22.4491 15.0723 22.4939C15.2498 22.5388 15.4345 22.5487 15.6159 22.5232C15.9823 22.4715 16.3128 22.2784 16.5349 21.9864Z" fill="#F1F4FE"/>
<rect x="5.21094" y="3.40417" width="31.5789" height="31.2713" rx="15.6356" fill="#1D1626"/>
<rect x="5.21094" y="4.44666" width="7.7193" height="28.839" fill="#F1F4FE"/>
<rect x="29.0703" y="4.44666" width="7.7193" height="28.839" fill="#F1F4FE"/>
<rect x="6.96484" y="34.6753" width="5.55933" height="28.0702" transform="rotate(-90 6.96484 34.6753)" fill="#F1F4FE"/>
<rect x="8.01758" y="8.96338" width="5.55933" height="28.0702" transform="rotate(-90 8.01758 8.96338)" fill="#F1F4FE"/>
<rect x="7.66699" y="13.4805" width="5.55933" height="28.0702" transform="rotate(-90 7.66699 13.4805)" fill="#F1F4FE"/>
<rect x="7.31641" y="19.0397" width="5.55933" height="28.0702" transform="rotate(-90 7.31641 19.0397)" fill="#F1F4FE"/>
<rect x="8.36914" y="24.5989" width="5.55933" height="28.0702" transform="rotate(-90 8.36914 24.5989)" fill="#F1F4FE"/>
<rect x="8.71973" y="29.4635" width="5.55933" height="28.0702" transform="rotate(-90 8.71973 29.4635)" fill="#F1F4FE"/>
<g filter="url(#filter0_d_146_1965)">
<path d="M12.2983 14.0019C12.2983 13.4306 12.5275 12.8826 12.9355 12.4786C13.3435 12.0746 13.8968 11.8477 14.4738 11.8477H23.1755C23.7525 11.8477 24.3058 12.0746 24.7138 12.4786C25.1218 12.8826 25.351 13.4306 25.351 14.0019V20.4646C25.351 21.036 25.1218 21.5839 24.7138 21.9879C24.3058 22.3919 23.7525 22.6189 23.1755 22.6189H14.4738C13.8968 22.6189 13.3435 22.3919 12.9355 21.9879C12.5275 21.5839 12.2983 21.036 12.2983 20.4646V14.0019ZM26.4387 20.1027V14.3595L28.8915 12.9916C28.9743 12.9455 29.0678 12.9217 29.1627 12.9225C29.2577 12.9233 29.3507 12.9487 29.4327 12.9962C29.5146 13.0437 29.5826 13.1116 29.6298 13.1932C29.677 13.2748 29.7019 13.3672 29.7018 13.4612V21.0032C29.7018 21.0973 29.6768 21.1897 29.6295 21.2713C29.5821 21.3529 29.514 21.4207 29.4319 21.4681C29.3499 21.5155 29.2567 21.5408 29.1617 21.5414C29.0667 21.5421 28.9731 21.518 28.8904 21.4717L26.4387 20.1038V20.1027ZM17.7369 23.4267H21.0001V23.9653C21.0001 25.0365 20.5703 26.0639 19.8054 26.8214C19.0404 27.5789 18.003 28.0045 16.9211 28.0045H13.9299C13.7857 28.0045 13.6473 27.9477 13.5454 27.8467C13.4434 27.7457 13.3861 27.6087 13.3861 27.4659V25.581C13.3861 25.4381 13.4434 25.3011 13.5454 25.2001C13.6473 25.0991 13.7857 25.0424 13.9299 25.0424H16.9211C17.1375 25.0424 17.345 24.9573 17.498 24.8058C17.651 24.6543 17.7369 24.4488 17.7369 24.2346V23.4267Z" fill="#1D1626"/>
</g>
<defs>
<filter id="filter0_d_146_1965" x="-9" y="-1.02771" width="60" height="55.7882" filterUnits="userSpaceOnUse" color-interpolation-filters="sRGB">
<feFlood flood-opacity="0" result="BackgroundImageFix"/>
<feColorMatrix in="SourceAlpha" type="matrix" values="0 0 0 0 0 0 0 0 0 0 0 0 0 0 0 0 0 0 127 0" result="hardAlpha"/>
<feOffset dy="8"/>
<feGaussianBlur stdDeviation="5"/>
<feComposite in2="hardAlpha" operator="out"/>
<feColorMatrix type="matrix" values="0 0 0 0 0.206299 0 0 0 0 0.201004 0 0 0 0 0.201004 0 0 0 0.25 0"/>
<feBlend mode="normal" in2="BackgroundImageFix" result="effect1_dropShadow_146_1965"/>
<feBlend mode="normal" in="SourceGraphic" in2="effect1_dropShadow_146_1965" result="shape"/>
</filter>
</defs>
</svg>
