<svg width="111" height="110" viewBox="0 0 111 110" fill="none" xmlns="http://www.w3.org/2000/svg">
<g filter="url(#filter0_d_146_2306)">
<path d="M51.4127 16.6905V23.705C51.4127 24.1034 51.5877 24.4844 51.894 24.7528L73.9694 43.7093H24.7C24.315 43.7093 24 44.021 24 44.402L24 49.598C24 49.979 24.315 50.2907 24.7 50.2907H73.9694L51.894 69.2472C51.5877 69.5069 51.4127 69.888 51.4127 70.295V77.3095C51.4127 77.8983 52.1215 78.2188 52.5677 77.8291L86.0352 49.087C86.3381 48.8272 86.5809 48.506 86.7474 48.1452C86.9139 47.7844 87 47.3923 87 46.9957C87 46.599 86.9139 46.207 86.7474 45.8462C86.5809 45.4853 86.3381 45.1641 86.0352 44.9043L52.5677 16.1709C52.1127 15.7812 51.4127 16.1017 51.4127 16.6905Z" fill="white"/>
</g>
<defs>
<filter id="filter0_d_146_2306" x="0" y="0" width="111" height="110" filterUnits="userSpaceOnUse" color-interpolation-filters="sRGB">
<feFlood flood-opacity="0" result="BackgroundImageFix"/>
<feColorMatrix in="SourceAlpha" type="matrix" values="0 0 0 0 0 0 0 0 0 0 0 0 0 0 0 0 0 0 127 0" result="hardAlpha"/>
<feOffset dy="8"/>
<feGaussianBlur stdDeviation="12"/>
<feColorMatrix type="matrix" values="0 0 0 0 0.337255 0 0 0 0 0.313726 0 0 0 0 0.760784 0 0 0 0.15 0"/>
<feBlend mode="normal" in2="BackgroundImageFix" result="effect1_dropShadow_146_2306"/>
<feBlend mode="normal" in="SourceGraphic" in2="effect1_dropShadow_146_2306" result="shape"/>
</filter>
</defs>
</svg>
