<svg width="40" height="36" viewBox="0 0 40 36" fill="none" xmlns="http://www.w3.org/2000/svg">
<path fill-rule="evenodd" clip-rule="evenodd" d="M12.5581 0.125854C9.22751 0.125854 6.0333 1.43104 3.67819 3.75428C1.32309 6.07753 0 9.22852 0 12.5141V23.5258C0 26.8114 1.32309 29.9624 3.67819 32.2856C6.0333 34.6089 9.22751 35.9141 12.5581 35.9141H27.4419C30.7725 35.9141 33.9667 34.6089 36.3218 32.2856C38.6769 29.9624 40 26.8114 40 23.5258V12.5141C40 9.22852 38.6769 6.07753 36.3218 3.75428C33.9667 1.43104 30.7725 0.125854 27.4419 0.125854H12.5581ZM21.0567 23.9847C21.2962 23.7121 21.4177 23.3578 21.395 22.9978C21.3723 22.6378 21.2073 22.301 20.9355 22.0598C20.6637 21.8186 20.3068 21.6923 19.9415 21.708C19.5762 21.7237 19.2318 21.8802 18.9823 22.1439L18.9637 22.1641C18.7251 22.4365 18.6042 22.7904 18.6269 23.1497C18.6497 23.5091 18.8143 23.8454 19.0854 24.0864C19.3566 24.3275 19.7126 24.4541 20.0773 24.4392C20.442 24.4243 20.7863 24.269 21.0363 24.0067L21.0549 23.9865L21.0567 23.9847ZM28.2307 17.5244C24.1377 12.6793 15.8623 12.6793 11.7693 17.5244C11.6537 17.6682 11.51 17.7877 11.3469 17.8759C11.1837 17.9642 11.0043 18.0193 10.8192 18.0381C10.6342 18.0569 10.4471 18.039 10.2692 17.9855C10.0912 17.9319 9.92589 17.8438 9.78296 17.7263C9.64002 17.6088 9.52235 17.4643 9.43687 17.3013C9.35139 17.1382 9.29982 16.96 9.2852 16.777C9.27058 16.5941 9.29321 16.41 9.35174 16.2358C9.41027 16.0616 9.50354 15.9007 9.62605 15.7626C14.8353 9.59597 25.1647 9.59597 30.374 15.7626C30.4965 15.9007 30.5897 16.0616 30.6483 16.2358C30.7068 16.41 30.7294 16.5941 30.7148 16.777C30.7002 16.96 30.6486 17.1382 30.5631 17.3013C30.4777 17.4643 30.36 17.6088 30.217 17.7263C30.0741 17.8438 29.9088 17.9319 29.7308 17.9855C29.5529 18.039 29.3658 18.0569 29.1808 18.0381C28.9957 18.0193 28.8163 17.9642 28.6531 17.8759C28.49 17.7877 28.3463 17.6682 28.2307 17.5244ZM15.5349 21.14C16.0548 20.4562 16.7289 19.9011 17.5039 19.5189C18.2789 19.1366 19.1335 18.9376 20 18.9376C20.8665 18.9376 21.7211 19.1366 22.4961 19.5189C23.2711 19.9011 23.9452 20.4562 24.4651 21.14C24.6872 21.432 25.0177 21.6251 25.3841 21.6767C25.7504 21.7283 26.1225 21.6343 26.4186 21.4153C26.7147 21.1962 26.9104 20.8701 26.9627 20.5087C27.0151 20.1473 26.9197 19.7802 26.6977 19.4882C23.3488 15.0835 16.6512 15.0835 13.3023 19.4882C13.0803 19.7802 12.9849 20.1473 13.0373 20.5087C13.0896 20.8701 13.2853 21.1962 13.5814 21.4153C13.728 21.5237 13.8948 21.6026 14.0723 21.6475C14.2498 21.6923 14.4345 21.7023 14.6159 21.6767C14.9823 21.6251 15.3128 21.432 15.5349 21.14Z" fill="#F1F4FE"/>
<rect x="4.21094" y="2.55835" width="31.5789" height="31.2713" rx="15.6356" fill="#3A208E"/>
<g clip-path="url(#clip0_146_2161)">
<path fill-rule="evenodd" clip-rule="evenodd" d="M12.5581 0.125854C9.22751 0.125854 6.0333 1.43104 3.67819 3.75428C1.32309 6.07753 0 9.22852 0 12.5141V23.5258C0 26.8114 1.32309 29.9624 3.67819 32.2856C6.0333 34.6089 9.22751 35.9141 12.5581 35.9141H27.4419C30.7725 35.9141 33.9667 34.6089 36.3218 32.2856C38.6769 29.9624 40 26.8114 40 23.5258V12.5141C40 9.22852 38.6769 6.07753 36.3218 3.75428C33.9667 1.43104 30.7725 0.125854 27.4419 0.125854H12.5581ZM21.0567 23.9847C21.2962 23.7121 21.4177 23.3578 21.395 22.9978C21.3723 22.6378 21.2073 22.301 20.9355 22.0598C20.6637 21.8186 20.3068 21.6923 19.9415 21.708C19.5762 21.7237 19.2318 21.8802 18.9823 22.1439L18.9637 22.1641C18.7251 22.4365 18.6042 22.7904 18.6269 23.1497C18.6497 23.5091 18.8143 23.8454 19.0854 24.0864C19.3566 24.3275 19.7126 24.4541 20.0773 24.4392C20.442 24.4243 20.7863 24.269 21.0363 24.0067L21.0549 23.9865L21.0567 23.9847ZM28.2307 17.5244C24.1377 12.6793 15.8623 12.6793 11.7693 17.5244C11.6537 17.6682 11.51 17.7877 11.3469 17.8759C11.1837 17.9642 11.0043 18.0193 10.8192 18.0381C10.6342 18.0569 10.4471 18.039 10.2692 17.9855C10.0912 17.9319 9.92589 17.8438 9.78296 17.7263C9.64002 17.6088 9.52235 17.4643 9.43687 17.3013C9.35139 17.1382 9.29982 16.96 9.2852 16.777C9.27058 16.5941 9.29321 16.41 9.35174 16.2358C9.41027 16.0616 9.50354 15.9007 9.62605 15.7626C14.8353 9.59597 25.1647 9.59597 30.374 15.7626C30.4965 15.9007 30.5897 16.0616 30.6483 16.2358C30.7068 16.41 30.7294 16.5941 30.7148 16.777C30.7002 16.96 30.6486 17.1382 30.5631 17.3013C30.4777 17.4643 30.36 17.6088 30.217 17.7263C30.0741 17.8438 29.9088 17.9319 29.7308 17.9855C29.5529 18.039 29.3658 18.0569 29.1808 18.0381C28.9957 18.0193 28.8163 17.9642 28.6531 17.8759C28.49 17.7877 28.3463 17.6682 28.2307 17.5244ZM15.5349 21.14C16.0548 20.4562 16.7289 19.9011 17.5039 19.5189C18.2789 19.1366 19.1335 18.9376 20 18.9376C20.8665 18.9376 21.7211 19.1366 22.4961 19.5189C23.2711 19.9011 23.9452 20.4562 24.4651 21.14C24.6872 21.432 25.0177 21.6251 25.3841 21.6767C25.7504 21.7283 26.1225 21.6343 26.4186 21.4153C26.7147 21.1962 26.9104 20.8701 26.9627 20.5087C27.0151 20.1473 26.9197 19.7802 26.6977 19.4882C23.3488 15.0835 16.6512 15.0835 13.3023 19.4882C13.0803 19.7802 12.9849 20.1473 13.0373 20.5087C13.0896 20.8701 13.2853 21.1962 13.5814 21.4153C13.728 21.5237 13.8948 21.6026 14.0723 21.6475C14.2498 21.6923 14.4345 21.7023 14.6159 21.6767C14.9823 21.6251 15.3128 21.432 15.5349 21.14Z" fill="#F1F4FE"/>
<rect x="7.36816" y="5.68518" width="25.2632" height="25.017" rx="12.5085" fill="#1D1626"/>
<path d="M30.1111 5.07721H9.88889C8.3 5.07721 7 6.36456 7 7.93798V27.9634C7 29.5368 8.3 30.8241 9.88889 30.8241H30.1111C31.7 30.8241 33 29.5368 33 27.9634V7.93798C33 6.36456 31.7 5.07721 30.1111 5.07721ZM15.6667 25.1026H12.7778V15.0899H15.6667V25.1026ZM21.4444 25.1026H18.5556V10.7987H21.4444V25.1026ZM27.2222 25.1026H24.3333V19.3811H27.2222V25.1026Z" fill="#F1F4FE"/>
</g>
<defs>
<clipPath id="clip0_146_2161">
<rect y="0.125854" width="40" height="35.7882" rx="17.8941" fill="white"/>
</clipPath>
</defs>
</svg>
