<svg width="154" height="79" viewBox="0 0 154 79" fill="none" xmlns="http://www.w3.org/2000/svg">
<path d="M34.5141 70.8945L7.00395 29.568H13.3794L40.8896 70.8945H34.5141ZM4.89748 47.6624V35.224L13.1836 47.6624H4.89748ZM16.0161 24.7059H0V75.7566H19.6491L16.416 70.8945H4.89748V52.5245H16.416L31.8856 75.7566H50L16.0161 24.7059Z" fill="white"/>
<path d="M144.932 62.6363C141.974 62.6363 139.596 60.2583 139.596 57.4163C139.596 54.5163 141.974 52.1383 144.932 52.1383C147.774 52.1383 150.268 54.5163 150.268 57.4163C150.268 60.2583 147.774 62.6363 144.932 62.6363Z" fill="#602EEE"/>
<path d="M74.628 61.6396H70.234L77.098 42.3996H81.206L88.044 61.6396H83.572L82.22 57.5836H76.006L74.628 61.6396ZM78.606 49.9396L77.228 54.0476H81.024L79.646 49.9396C79.438 49.2896 79.204 48.5356 79.126 48.0676C79.048 48.5096 78.84 49.2376 78.606 49.9396ZM93.7933 61.6396H89.7893V42.0356H93.8193V49.9916C94.6253 48.8736 96.1073 48.2236 97.7973 48.2236C100.891 48.2236 102.685 50.1996 102.685 53.6056V61.6396H98.6813V54.5676C98.6813 52.9296 97.7713 51.8636 96.3933 51.8636C94.8073 51.8636 93.7933 52.9036 93.7933 54.5156V61.6396ZM104.855 55.1136C104.855 51.0056 107.871 48.2496 112.031 48.2496C116.165 48.2496 119.181 51.0056 119.181 55.1136C119.181 59.2216 116.165 61.9516 112.031 61.9516C107.871 61.9516 104.855 59.2216 104.855 55.1136ZM108.885 55.0876C108.885 57.0636 110.159 58.3636 112.031 58.3636C113.877 58.3636 115.151 57.0636 115.151 55.0876C115.151 53.1376 113.877 51.8376 112.031 51.8376C110.159 51.8376 108.885 53.1376 108.885 55.0876ZM125.506 61.6396H121.502V48.6396H125.272L125.532 49.9916C126.338 48.8736 127.82 48.2236 129.51 48.2236C132.604 48.2236 134.398 50.1996 134.398 53.6056V61.6396H130.394V54.5676C130.394 52.9296 129.484 51.8636 128.106 51.8636C126.52 51.8636 125.506 52.9036 125.506 54.5156V61.6396Z" fill="white"/>
</svg>
